<?xml version="1.0" encoding="iso-8859-1"?>
<!-- Generator: Adobe Illustrator 19.0.0, SVG Export Plug-In . SVG Version: 6.00 Build 0)  -->
<svg version="1.1" id="Capa_1" xmlns="http://www.w3.org/2000/svg" xmlns:xlink="http://www.w3.org/1999/xlink" x="0px" y="0px"
	 viewBox="0 0 496 496" style="enable-background:new 0 0 496 496;" xml:space="preserve">
<g>
	<g>
		<rect x="120" y="400" width="16" height="16"/>
	</g>
</g>
<g>
	<g>
		<path d="M493.6,50.4l-48-48C444,0.8,442.4,0,440,0H248c-4.8,0-8,3.2-8,8v120h-40c-4.8,0-8,3.2-8,8v28.8l-34.4-34.4
			c-3.2-3.2-8-3.2-11.2,0l-144,144C0.8,276,0,277.6,0,280v208c0,4.8,3.2,8,8,8h288c4.8,0,8-3.2,8-8V352h184c4.8,0,8-3.2,8-8V56
			C496,53.6,495.2,52,493.6,50.4z M448,27.2L468.8,48H448V27.2z M208,144h48v84.8l-48-48V144z M200,480h-96V320h96V480z M288,480
			h-72V312c0-4.8-3.2-8-8-8H96c-4.8,0-8,3.2-8,8v168H16V283.2l136-136l136,136V480z M480,336H304v-16h176V336z M480,304H304v-24
			c0-2.4-0.8-4-2.4-5.6L272,244.8V136c0-4.8-3.2-8-8-8h-8V16h176v40c0,4.8,3.2,8,8,8h40V304z"/>
	</g>
</g>
<g>
	<g>
		<rect x="272" y="32" width="144" height="16"/>
	</g>
</g>
<g>
	<g>
		<rect x="272" y="64" width="144" height="16"/>
	</g>
</g>
<g>
	<g>
		<rect x="272" y="96" width="192" height="16"/>
	</g>
</g>
<g>
	<g>
		<path d="M458.4,130.4L432,156.8l-10.4-10.4l-11.2,11.2l16,16c3.2,3.2,8,3.2,11.2,0l32-32L458.4,130.4z"/>
	</g>
</g>
<g>
	<g>
		<path d="M458.4,178.4L432,204.8l-10.4-10.4l-11.2,11.2l16,16c3.2,3.2,8,3.2,11.2,0l32-32L458.4,178.4z"/>
	</g>
</g>
<g>
	<g>
		<path d="M458.4,226.4L432,252.8l-10.4-10.4l-11.2,11.2l16,16c3.2,3.2,8,3.2,11.2,0l32-32L458.4,226.4z"/>
	</g>
</g>
<g>
	<g>
		<rect x="288" y="160" width="112" height="16"/>
	</g>
</g>
<g>
	<g>
		<rect x="288" y="208" width="112" height="16"/>
	</g>
</g>
<g>
	<g>
		<rect x="320" y="256" width="80" height="16"/>
	</g>
</g>
<g>
</g>
<g>
</g>
<g>
</g>
<g>
</g>
<g>
</g>
<g>
</g>
<g>
</g>
<g>
</g>
<g>
</g>
<g>
</g>
<g>
</g>
<g>
</g>
<g>
</g>
<g>
</g>
<g>
</g>
</svg>
