<svg id="Capa_1" enable-background="new 0 0 512 512" height="512" viewBox="0 0 512 512" width="512" xmlns="http://www.w3.org/2000/svg"><g><path d="m512 197v180c0 8.28-6.72 15-15 15s-15-6.72-15-15v-15h-196c-3.98 0-7.79-1.58-10.61-4.39l-34.39-34.4v23.79c0 8.28-6.72 15-15 15h-196v15c0 8.28-6.72 15-15 15s-15-6.72-15-15v-180c0-8.28 6.72-15 15-15s15 6.72 15 15v15h151v-90h-15c-8.28 0-15-6.72-15-15s6.72-15 15-15h180c8.28 0 15 6.72 15 15s-6.72 15-15 15h-15v90h151v-15c0-8.28 6.72-15 15-15s15 6.72 15 15z"/><path d="m331 62v-47c0-8.28-6.72-15-15-15h-120c-8.28 0-15 6.72-15 15v47z"/><path d="m268.99 399.5c-2.68-4.64-7.63-7.5-12.99-7.5s-10.31 2.86-12.99 7.5l-26 45.02c-3.93 6.81-6.01 14.58-6.01 22.48 0 24.81 20.19 45 45 45s45-20.19 45-45c0-7.9-2.08-15.67-6.01-22.48z"/></g></svg>