<?xml version="1.0" encoding="utf-8"?>
<!-- Generator: Adobe Illustrator 19.1.1, SVG Export Plug-In . SVG Version: 6.00 Build 0)  -->
<svg version="1.1" id="Capa_1" xmlns="http://www.w3.org/2000/svg" xmlns:xlink="http://www.w3.org/1999/xlink" x="0px" y="0px"
	 viewBox="-41 164.9 512 512" style="enable-background:new -41 164.9 512 512;" xml:space="preserve">
<g>
	<path d="M401.2,242H283.4h-30h-76.8h-30H28.8c-5.3,0-9.5,4.3-9.5,9.5v43.7c0,5.3,4.3,9.5,9.5,9.5h372.4c5.3,0,9.5-4.3,9.5-9.5
		v-43.7C410.7,246.2,406.4,242,401.2,242z"/>
	<path d="M60.8,676.9h308.4L392,334.7H38L60.8,676.9z M142,408.2c17.7-17.7,41.2-27.4,66.2-27.4c25,0,48.5,9.7,66.2,27.4
		c14.4,14.4,23.5,32.7,26.4,52.5l1.5-1.5c5.9-5.9,15.4-5.9,21.2,0c5.9,5.9,5.9,15.4,0,21.2l-26.1,26.1c-2.8,2.8-6.6,4.4-10.6,4.4
		s-7.8-1.6-10.6-4.4L250,480.3c-5.9-5.9-5.9-15.4,0-21.2c5.3-5.3,13.7-5.8,19.5-1.4c-2.9-10.6-8.4-20.3-16.4-28.3
		c-12-12-28-18.6-45-18.6s-32.9,6.6-45,18.6c-5.9,5.9-15.4,5.9-21.2,0C136.2,423.5,136.2,414,142,408.2L142,408.2z M106.5,493.4
		l26.1-26.1c5.9-5.9,15.4-5.9,21.2,0l26.1,26.1c5.9,5.9,5.9,15.4,0,21.2c-2.9,2.9-6.8,4.4-10.6,4.4c-3.1,0-6.3-1-8.9-3
		c2.9,10.6,8.4,20.3,16.4,28.3c12,12,28,18.6,45,18.6s32.9-6.6,45-18.6c5.9-5.9,15.4-5.9,21.2,0c5.9,5.9,5.9,15.4,0,21.2
		c-17.7,17.7-41.2,27.4-66.2,27.4c-25,0-48.5-9.7-66.2-27.4c-14.4-14.4-23.5-32.7-26.4-52.5l-1.5,1.5c-5.9,5.9-15.4,5.9-21.2,0
		C100.7,508.7,100.7,499.2,106.5,493.4L106.5,493.4z"/>
</g>
</svg>
