<?xml version="1.0" encoding="iso-8859-1"?>
<!-- Generator: Adobe Illustrator 19.0.0, SVG Export Plug-In . SVG Version: 6.00 Build 0)  -->
<svg version="1.1" id="Capa_1" xmlns="http://www.w3.org/2000/svg" xmlns:xlink="http://www.w3.org/1999/xlink" x="0px" y="0px"
	 viewBox="0 0 512 512" style="enable-background:new 0 0 512 512;" xml:space="preserve">
<g>
	<g>
		<path d="M174.147,0c0,0-173.025,199.582-173.025,338.974c0,94.064,75.06,170.596,168.551,172.969
			c1.465,0.037,2.934,0.055,4.408,0.056c0.022,0,0.044,0.001,0.066,0.001h0.001c1.376,0,2.747-0.02,4.115-0.052
			c0.395-0.009,0.788-0.024,1.182-0.036c1.01-0.03,2.019-0.067,3.025-0.115c0.393-0.018,0.785-0.039,1.176-0.06
			c1.113-0.06,2.224-0.13,3.331-0.211c0.232-0.017,0.465-0.032,0.697-0.05c89.236-6.902,159.497-81.495,159.497-172.502
			C347.173,199.582,174.147,0,174.147,0z M241.866,434.086l-18.642-23.505c27.061-21.462,40.208-47.737,39.076-78.096
			c-0.842-22.566-9.475-39.23-9.562-39.392l26.43-14.192c0.49,0.911,11.999,22.664,13.11,52.466
			C293.316,359.165,285.411,399.55,241.866,434.086z"/>
	</g>
</g>
<g>
	<g>
		<path d="M380.703,112.815l-11.334-13.074l-11.334,13.074c-0.971,1.121-16.74,19.393-37.051,47.311
			c37.318,68.984,56.189,128.96,56.189,178.849c0,27.395-5.372,53.987-15.967,79.036c-10.227,24.18-24.862,45.889-43.498,64.525
			c-4.636,4.636-9.464,9.024-14.471,13.159C323.344,506.352,345.883,512,369.369,512c78.028,0,141.51-63.481,141.51-141.51
			C510.879,264.195,386.018,118.946,380.703,112.815z M436.986,443.85l-18.643-23.505c16.981-13.467,25.402-29.816,25.029-48.593
			c-0.294-14.816-6.012-25.974-6.069-26.086l13.26-7.012l13.215-7.096c0.895,1.665,8.756,16.873,9.544,38.017
			C474.073,389.717,468.379,418.952,436.986,443.85z"/>
	</g>
</g>
<g>
</g>
<g>
</g>
<g>
</g>
<g>
</g>
<g>
</g>
<g>
</g>
<g>
</g>
<g>
</g>
<g>
</g>
<g>
</g>
<g>
</g>
<g>
</g>
<g>
</g>
<g>
</g>
<g>
</g>
</svg>
